%FSTAX23Y23*%
%MOIN*%
%SFA1B1*%

%IPPOS*%
%AMD13*
4,1,8,0.078700,-0.060600,0.078700,0.060600,0.039400,0.100000,-0.039400,0.100000,-0.078700,0.060600,-0.078700,-0.060600,-0.039400,-0.100000,0.039400,-0.100000,0.078700,-0.060600,0.0*
1,1,0.078740,0.039400,-0.060600*
1,1,0.078740,0.039400,0.060600*
1,1,0.078740,-0.039400,0.060600*
1,1,0.078740,-0.039400,-0.060600*
%
G04~CAMADD=13~8~0.0~0.0~2000.0~1574.8~393.7~0.0~15~0.0~0.0~0.0~0.0~0~0.0~0.0~0.0~0.0~0~0.0~0.0~0.0~270.0~1574.0~2000.0*
%ADD13D13*%
%ADD14R,0.033470X0.033470*%
%ADD15R,0.038190X0.036220*%
%ADD16O,0.118110X0.059060*%
%ADD17O,0.011020X0.027560*%
%ADD18O,0.027560X0.011020*%
%ADD19R,0.105510X0.105510*%
%ADD20R,0.036220X0.038190*%
%ADD21R,0.033470X0.033470*%
%LNpcb2-1*%
%LPD*%
G54D13*
X01565Y03275D03*
Y03527D03*
G54D14*
X02152Y03465D03*
X02207D03*
G54D15*
X02596Y03537D03*
Y03476D03*
X02288Y03462D03*
Y03523D03*
G54D16*
X0187Y03627D03*
X02015Y03295D03*
X01873Y03295D03*
X0187Y03435D03*
Y03525D03*
G54D17*
X02365Y03361D03*
X02385D03*
X02405D03*
X02424D03*
X02444D03*
X02464D03*
Y03518D03*
X02444D03*
X02424D03*
X02405D03*
X02385D03*
X02365D03*
G54D18*
X02493Y0339D03*
Y0341D03*
Y0343D03*
Y03449D03*
Y03469D03*
Y03489D03*
X02336D03*
Y03469D03*
Y03449D03*
Y0343D03*
Y0341D03*
Y0339D03*
G54D19*
X02415Y0344D03*
G54D20*
X02437Y03298D03*
X02376D03*
X02526Y0358D03*
X02465D03*
G54D21*
X0225Y03257D03*
Y03312D03*
X0219Y03257D03*
Y03312D03*
X02595Y0341D03*
Y03354D03*
M02*