%FSTAX23Y23*%
%MOIN*%
%SFA1B1*%

%IPPOS*%
%ADD31C,0.003940*%
%ADD39C,0.010000*%
%ADD40C,0.006000*%
%LNpcb2-1*%
%LPD*%
G54D31*
X02391Y03396D02*
D01*
X02391Y03398*
X02391Y03399*
X0239Y034*
X0239Y03402*
X0239Y03403*
X02389Y03404*
X02389Y03405*
X02388Y03407*
X02387Y03408*
X02386Y03409*
X02385Y0341*
X02384Y03411*
X02383Y03412*
X02382Y03413*
X02381Y03413*
X0238Y03414*
X02379Y03414*
X02377Y03415*
X02376Y03415*
X02375Y03416*
X02373Y03416*
X02372Y03416*
X02371*
X02369Y03416*
X02368Y03416*
X02366Y03415*
X02365Y03415*
X02364Y03414*
X02363Y03414*
X02361Y03413*
X0236Y03413*
X02359Y03412*
X02358Y03411*
X02357Y0341*
X02356Y03409*
X02355Y03408*
X02354Y03407*
X02354Y03405*
X02353Y03404*
X02353Y03403*
X02352Y03402*
X02352Y034*
X02352Y03399*
X02352Y03398*
X02352Y03396*
X02352Y03395*
X02352Y03393*
X02352Y03392*
X02352Y03391*
X02353Y03389*
X02353Y03388*
X02354Y03387*
X02354Y03386*
X02355Y03385*
X02356Y03384*
X02357Y03383*
X02358Y03382*
X02359Y03381*
X0236Y0338*
X02361Y03379*
X02363Y03378*
X02364Y03378*
X02365Y03377*
X02366Y03377*
X02368Y03377*
X02369Y03377*
X02371Y03377*
X02372*
X02373Y03377*
X02375Y03377*
X02376Y03377*
X02377Y03377*
X02379Y03378*
X0238Y03378*
X02381Y03379*
X02382Y0338*
X02383Y03381*
X02384Y03382*
X02385Y03383*
X02386Y03384*
X02387Y03385*
X02388Y03386*
X02389Y03387*
X02389Y03388*
X0239Y03389*
X0239Y03391*
X0239Y03392*
X02391Y03393*
X02391Y03395*
X02391Y03396*
X02336Y03361D02*
X02493D01*
X02336Y03518D02*
X02493D01*
X02336Y03361D02*
Y03518D01*
X02493Y03361D02*
Y03518D01*
G54D39*
X0131Y03188D02*
X0133Y03128D01*
X0135Y03188*
X0133Y0368D02*
X0135Y0362D01*
X0131D02*
X0133Y0368D01*
Y03128D02*
Y03242D01*
Y03534D02*
Y0368D01*
X0132Y03128D02*
X01542D01*
X0132Y0368D02*
X0165D01*
X01454Y03025D02*
X01514Y03045D01*
X01454Y03025D02*
X01514Y03005D01*
X05725D02*
X05785Y03025D01*
X05725Y03045D02*
X05785Y03025D01*
X01454D02*
X03432D01*
X03774D02*
X05785D01*
X01454Y03015D02*
Y03216D01*
X05785Y03015D02*
Y03216D01*
G54D40*
X01365Y03258D02*
Y03278D01*
Y03268*
X01306*
X01316Y03258*
X01365Y03338D02*
X01306D01*
X01336Y03308*
Y03348*
X01365Y03368D02*
X01355D01*
Y03378*
X01365*
Y03368*
X01316Y03418D02*
X01306Y03428D01*
Y03448*
X01316Y03458*
X01355*
X01365Y03448*
Y03428*
X01355Y03418*
X01316*
X01365Y03518D02*
Y03478D01*
X01326Y03518*
X01316*
X01306Y03508*
Y03488*
X01316Y03478*
X03448Y02989D02*
X03468D01*
X03458*
Y03048*
X03448Y03038*
X03498Y02989D02*
X03518D01*
X03508*
Y03048*
X03498Y03038*
X03548D02*
X03558Y03048D01*
X03578*
X03588Y03038*
Y02999*
X03578Y02989*
X03558*
X03548Y02999*
Y03038*
X03608Y02989D02*
Y02999D01*
X03618*
Y02989*
X03608*
X03658Y03038D02*
X03668Y03048D01*
X03688*
X03698Y03038*
Y02999*
X03688Y02989*
X03668*
X03658Y02999*
Y03038*
X03718D02*
X03728Y03048D01*
X03748*
X03758Y03038*
Y02999*
X03748Y02989*
X03728*
X03718Y02999*
Y03038*
M02*