%FSTAX23Y23*%
%MOIN*%
%SFA1B1*%

%IPPOS*%
%ADD10C,0.007870*%
%ADD41C,0.001970*%
%LNpcb2-1*%
%LPD*%
G54D10*
X01537Y03722D02*
Y03754D01*
X01553*
X01558Y03749*
Y03738*
X01553Y03733*
X01537*
X01548D02*
X01558Y03722D01*
X01569D02*
X01579D01*
X01574*
Y03754*
X01569Y03749*
X01616Y03754D02*
X01595D01*
Y03738*
X01606Y03743*
X01611*
X01616Y03738*
Y03728*
X01611Y03722*
X016*
X01595Y03728*
X01658Y03722D02*
X01669D01*
X01663*
Y03743*
X01658*
X01684Y03722D02*
X017D01*
X01705Y03728*
X017Y03733*
X0169*
X01684Y03738*
X0169Y03743*
X01705*
X01747Y03749D02*
X01753Y03754D01*
X01763*
X01768Y03749*
Y03728*
X01763Y03722*
X01753*
X01747Y03728*
Y03749*
X01826Y03754D02*
X01816D01*
X0181Y03749*
Y03728*
X01816Y03722*
X01826*
X01831Y03728*
Y03749*
X01826Y03754*
X01842D02*
Y03722D01*
Y03738*
X01847Y03743*
X01857*
X01863Y03738*
Y03722*
X01873D02*
Y03743D01*
X01878*
X01884Y03738*
Y03722*
Y03738*
X01889Y03743*
X01894Y03738*
Y03722*
G54D41*
X02567Y03565D02*
X02624D01*
X02567Y03448D02*
X02624D01*
X02567D02*
Y03565D01*
X02624Y03448D02*
Y03565D01*
X02465Y0327D02*
Y03327D01*
X02348Y0327D02*
Y03327D01*
X02465*
X02348Y0327D02*
X02465D01*
X02553Y03551D02*
Y03608D01*
X02437Y03551D02*
Y03608D01*
X02553*
X02437Y03551D02*
X02553D01*
X0226Y03434D02*
X02317D01*
X0226Y03551D02*
X02317D01*
Y03434D02*
Y03551D01*
X0226Y03434D02*
Y03551D01*
M02*