%FSTAX23Y23*%
%MOIN*%
%SFA1B1*%

%IPPOS*%
%AMD22*
4,1,8,0.082700,-0.060600,0.082700,0.060600,0.039400,0.104000,-0.039400,0.104000,-0.082700,0.060600,-0.082700,-0.060600,-0.039400,-0.104000,0.039400,-0.104000,0.082700,-0.060600,0.0*
1,1,0.086740,0.039400,-0.060600*
1,1,0.086740,0.039400,0.060600*
1,1,0.086740,-0.039400,0.060600*
1,1,0.086740,-0.039400,-0.060600*
%
G04~CAMADD=22~8~0.0~0.0~2080.0~1654.8~433.7~0.0~15~0.0~0.0~0.0~0.0~0~0.0~0.0~0.0~0.0~0~0.0~0.0~0.0~270.0~1654.0~2080.0*
%ADD22D22*%
%ADD23R,0.041470X0.041470*%
%ADD24R,0.046190X0.044220*%
%ADD25O,0.126110X0.067060*%
%ADD26O,0.015020X0.031560*%
%ADD27O,0.031560X0.015020*%
%ADD28R,0.109510X0.109510*%
%ADD29R,0.044220X0.046190*%
%ADD30R,0.041470X0.041470*%
%LNpcb2-1*%
%LPD*%
G54D22*
X01565Y03275D03*
Y03527D03*
G54D23*
X02152Y03465D03*
X02207D03*
G54D24*
X02596Y03537D03*
Y03476D03*
X02288Y03462D03*
Y03523D03*
G54D25*
X0187Y03627D03*
X02015Y03295D03*
X01873Y03295D03*
X0187Y03435D03*
Y03525D03*
G54D26*
X02365Y03361D03*
X02385D03*
X02405D03*
X02424D03*
X02444D03*
X02464D03*
Y03518D03*
X02444D03*
X02424D03*
X02405D03*
X02385D03*
X02365D03*
G54D27*
X02493Y0339D03*
Y0341D03*
Y0343D03*
Y03449D03*
Y03469D03*
Y03489D03*
X02336D03*
Y03469D03*
Y03449D03*
Y0343D03*
Y0341D03*
Y0339D03*
G54D28*
X02415Y0344D03*
G54D29*
X02437Y03298D03*
X02376D03*
X02526Y0358D03*
X02465D03*
G54D30*
X0225Y03257D03*
Y03312D03*
X0219Y03257D03*
Y03312D03*
X02595Y0341D03*
Y03354D03*
M02*