%FSTAX23Y23*%
%MOIN*%
%SFA1B1*%

%IPPOS*%
%ADD10C,0.007870*%
%ADD11C,0.009840*%
%ADD12C,0.007090*%
%LNpcb2-1*%
%LPD*%
G54D10*
X02075Y03297D02*
D01*
X02074Y03299*
X02074Y033*
X02074Y03302*
X02074Y03304*
X02073Y03306*
X02072Y03307*
X02072Y03309*
X02071Y0331*
X0207Y03312*
X02069Y03313*
X02067Y03314*
X02066Y03316*
X02065Y03317*
X02063Y03318*
X02062Y03319*
X0206Y03319*
X02059Y0332*
X02057Y03321*
X02056Y03321*
X02054Y03322*
X02052Y03322*
X0205Y03322*
X0205Y03322*
Y03267D02*
D01*
X02051Y03267*
X02053Y03267*
X02055Y03268*
X02056Y03268*
X02058Y03269*
X0206Y03269*
X02061Y0327*
X02063Y03271*
X02064Y03272*
X02066Y03273*
X02067Y03274*
X02068Y03275*
X02069Y03277*
X0207Y03278*
X02071Y0328*
X02072Y03281*
X02073Y03283*
X02073Y03284*
X02074Y03286*
X02074Y03288*
X02074Y03289*
X02074Y03291*
X02075Y03292*
X01955D02*
D01*
X01955Y0329*
X01955Y03289*
X01955Y03287*
X01955Y03285*
X01956Y03283*
X01957Y03282*
X01957Y0328*
X01958Y03279*
X01959Y03277*
X0196Y03276*
X01962Y03275*
X01963Y03273*
X01964Y03272*
X01966Y03271*
X01967Y0327*
X01969Y0327*
X0197Y03269*
X01972Y03268*
X01973Y03268*
X01975Y03267*
X01977Y03267*
X01979Y03267*
X0198Y03267*
Y03322D02*
D01*
X01978Y03322*
X01976Y03322*
X01974Y03321*
X01973Y03321*
X01971Y0332*
X01969Y0332*
X01968Y03319*
X01966Y03318*
X01965Y03317*
X01963Y03316*
X01962Y03315*
X01961Y03314*
X0196Y03312*
X01959Y03311*
X01958Y0331*
X01957Y03308*
X01956Y03306*
X01956Y03305*
X01955Y03303*
X01955Y03301*
X01955Y033*
X01955Y03298*
X01955Y03297*
X01933Y03297D02*
D01*
X01933Y03299*
X01932Y033*
X01932Y03302*
X01932Y03304*
X01931Y03306*
X0193Y03307*
X0193Y03309*
X01929Y0331*
X01928Y03312*
X01927Y03313*
X01926Y03314*
X01924Y03316*
X01923Y03317*
X01922Y03318*
X0192Y03319*
X01919Y03319*
X01917Y0332*
X01915Y03321*
X01914Y03321*
X01912Y03322*
X0191Y03322*
X01908Y03322*
X01908Y03322*
Y03267D02*
D01*
X01909Y03267*
X01911Y03267*
X01913Y03268*
X01914Y03268*
X01916Y03269*
X01918Y03269*
X01919Y0327*
X01921Y03271*
X01922Y03272*
X01924Y03273*
X01925Y03274*
X01926Y03275*
X01927Y03277*
X01928Y03278*
X01929Y0328*
X0193Y03281*
X01931Y03283*
X01931Y03284*
X01932Y03286*
X01932Y03288*
X01932Y03289*
X01933Y03291*
X01933Y03292*
X01813D02*
D01*
X01813Y0329*
X01813Y03289*
X01813Y03287*
X01814Y03285*
X01814Y03283*
X01815Y03282*
X01816Y0328*
X01816Y03279*
X01817Y03277*
X01818Y03276*
X0182Y03275*
X01821Y03273*
X01822Y03272*
X01824Y03271*
X01825Y0327*
X01827Y0327*
X01828Y03269*
X0183Y03268*
X01832Y03268*
X01833Y03267*
X01835Y03267*
X01837Y03267*
X01838Y03267*
Y03322D02*
D01*
X01836Y03322*
X01834Y03322*
X01832Y03321*
X01831Y03321*
X01829Y03321*
X01827Y0332*
X01826Y03319*
X01824Y03318*
X01823Y03317*
X01822Y03316*
X0182Y03315*
X01819Y03314*
X01818Y03312*
X01817Y03311*
X01816Y0331*
X01815Y03308*
X01814Y03306*
X01814Y03305*
X01813Y03303*
X01813Y03301*
X01813Y033*
X01813Y03298*
X01813Y03297*
X0193Y0344D02*
D01*
X0193Y03441*
X0193Y03443*
X0193Y03445*
X01929Y03447*
X01929Y03448*
X01928Y0345*
X01927Y03451*
X01927Y03453*
X01926Y03454*
X01924Y03456*
X01923Y03457*
X01922Y03458*
X01921Y03459*
X01919Y0346*
X01918Y03461*
X01916Y03462*
X01915Y03463*
X01913Y03463*
X01911Y03464*
X0191Y03464*
X01908Y03465*
X01906Y03465*
X01905Y03465*
Y0341D02*
D01*
X01907Y0341*
X01909Y0341*
X01911Y0341*
X01912Y03411*
X01914Y03411*
X01915Y03412*
X01917Y03413*
X01919Y03413*
X0192Y03414*
X01921Y03416*
X01923Y03417*
X01924Y03418*
X01925Y03419*
X01926Y03421*
X01927Y03422*
X01928Y03424*
X01928Y03425*
X01929Y03427*
X0193Y03429*
X0193Y0343*
X0193Y03432*
X0193Y03434*
X0193Y03435*
X0181D02*
D01*
X0181Y03433*
X01811Y03431*
X01811Y03429*
X01811Y03428*
X01812Y03426*
X01812Y03425*
X01813Y03423*
X01814Y03421*
X01815Y0342*
X01816Y03419*
X01817Y03417*
X01819Y03416*
X0182Y03415*
X01821Y03414*
X01823Y03413*
X01824Y03412*
X01826Y03412*
X01828Y03411*
X01829Y0341*
X01831Y0341*
X01833Y0341*
X01834Y0341*
X01835Y0341*
Y03465D02*
D01*
X01834Y03465*
X01832Y03464*
X0183Y03464*
X01828Y03464*
X01827Y03463*
X01825Y03463*
X01824Y03462*
X01822Y03461*
X01821Y0346*
X01819Y03459*
X01818Y03458*
X01817Y03456*
X01816Y03455*
X01815Y03454*
X01814Y03452*
X01813Y03451*
X01812Y03449*
X01812Y03447*
X01811Y03446*
X01811Y03444*
X0181Y03442*
X0181Y03441*
X0181Y0344*
X0193Y03527D02*
D01*
X01929Y03529*
X01929Y0353*
X01929Y03532*
X01929Y03534*
X01928Y03536*
X01927Y03537*
X01927Y03539*
X01926Y0354*
X01925Y03542*
X01924Y03543*
X01922Y03544*
X01921Y03546*
X0192Y03547*
X01918Y03548*
X01917Y03549*
X01915Y03549*
X01914Y0355*
X01912Y03551*
X01911Y03551*
X01909Y03552*
X01907Y03552*
X01905Y03552*
X01905Y03552*
Y03497D02*
D01*
X01906Y03497*
X01908Y03497*
X0191Y03498*
X01911Y03498*
X01913Y03499*
X01915Y03499*
X01916Y035*
X01918Y03501*
X01919Y03502*
X01921Y03503*
X01922Y03504*
X01923Y03505*
X01924Y03507*
X01925Y03508*
X01926Y0351*
X01927Y03511*
X01928Y03513*
X01928Y03514*
X01929Y03516*
X01929Y03518*
X01929Y03519*
X01929Y03521*
X0193Y03522*
X0181D02*
D01*
X0181Y0352*
X0181Y03519*
X0181Y03517*
X0181Y03515*
X01811Y03513*
X01812Y03512*
X01812Y0351*
X01813Y03509*
X01814Y03507*
X01815Y03506*
X01817Y03505*
X01818Y03503*
X01819Y03502*
X01821Y03501*
X01822Y035*
X01824Y035*
X01825Y03499*
X01827Y03498*
X01828Y03498*
X0183Y03497*
X01832Y03497*
X01834Y03497*
X01835Y03497*
Y03552D02*
D01*
X01833Y03552*
X01831Y03552*
X01829Y03551*
X01828Y03551*
X01826Y0355*
X01824Y0355*
X01823Y03549*
X01821Y03548*
X0182Y03547*
X01818Y03546*
X01817Y03545*
X01816Y03544*
X01815Y03542*
X01814Y03541*
X01813Y0354*
X01812Y03538*
X01811Y03536*
X01811Y03535*
X0181Y03533*
X0181Y03531*
X0181Y0353*
X0181Y03528*
X0181Y03527*
X01835Y03655D02*
D01*
X01833Y03654*
X01831Y03654*
X01829Y03654*
X01828Y03654*
X01826Y03653*
X01824Y03652*
X01823Y03652*
X01821Y03651*
X0182Y0365*
X01818Y03649*
X01817Y03647*
X01816Y03646*
X01815Y03645*
X01814Y03643*
X01813Y03642*
X01812Y0364*
X01811Y03639*
X01811Y03637*
X0181Y03636*
X0181Y03634*
X0181Y03632*
X0181Y0363*
X0181Y0363*
Y03625D02*
D01*
X0181Y03623*
X0181Y03621*
X0181Y03619*
X0181Y03618*
X01811Y03616*
X01812Y03614*
X01812Y03613*
X01813Y03611*
X01814Y0361*
X01815Y03608*
X01817Y03607*
X01818Y03606*
X01819Y03605*
X01821Y03604*
X01822Y03603*
X01824Y03602*
X01825Y03601*
X01827Y03601*
X01828Y036*
X0183Y036*
X01832Y036*
X01834Y036*
X01835Y036*
X01905D02*
D01*
X01906Y036*
X01908Y036*
X0191Y036*
X01911Y036*
X01913Y03601*
X01915Y03602*
X01916Y03602*
X01918Y03603*
X01919Y03604*
X01921Y03605*
X01922Y03607*
X01923Y03608*
X01924Y03609*
X01925Y03611*
X01926Y03612*
X01927Y03614*
X01928Y03615*
X01928Y03617*
X01929Y03618*
X01929Y0362*
X01929Y03622*
X01929Y03624*
X0193Y03625*
Y0363D02*
D01*
X01929Y03631*
X01929Y03633*
X01929Y03635*
X01929Y03636*
X01928Y03638*
X01927Y0364*
X01927Y03641*
X01926Y03643*
X01925Y03644*
X01924Y03646*
X01922Y03647*
X01921Y03648*
X0192Y03649*
X01918Y0365*
X01917Y03651*
X01915Y03652*
X01914Y03653*
X01912Y03653*
X01911Y03654*
X01909Y03654*
X01907Y03654*
X01905Y03654*
X01905Y03655*
X0198Y03322D02*
X0205D01*
X02075Y03292D02*
Y03297D01*
X0198Y03267D02*
X0205D01*
X01955Y03292D02*
Y03297D01*
X01838Y03322D02*
X01908D01*
X01933Y03292D02*
Y03297D01*
X01838Y03267D02*
X01908D01*
X01813Y03292D02*
Y03297D01*
X01835Y03465D02*
X01905D01*
X0193Y03435D02*
Y0344D01*
X01835Y0341D02*
X01905D01*
X0181Y03435D02*
Y0344D01*
X01835Y03552D02*
X01905D01*
X0193Y03522D02*
Y03527D01*
X01835Y03497D02*
X01905D01*
X0181Y03522D02*
Y03527D01*
Y03625D02*
Y0363D01*
X01835Y036D02*
X01905D01*
X0193Y03625D02*
Y0363D01*
X01835Y03655D02*
X01905D01*
X02126Y03439D02*
Y0349D01*
X02233Y03439D02*
Y0349D01*
X02126D02*
X02233D01*
X02126Y03439D02*
X02233D01*
X0233Y03355D02*
X02346D01*
X0233D02*
Y03371D01*
Y03508D02*
Y03524D01*
X02346*
X02483D02*
X02499D01*
Y03508D02*
Y03524D01*
X02483Y03355D02*
X02499D01*
Y03371*
X02224Y03231D02*
X02275D01*
X02224Y03338D02*
X02275D01*
X02224Y03231D02*
Y03338D01*
X02275Y03231D02*
Y03338D01*
X02164Y03231D02*
X02215D01*
X02164Y03338D02*
X02215D01*
X02164Y03231D02*
Y03338D01*
X02215Y03231D02*
Y03338D01*
X02569Y03435D02*
X0262D01*
X02569Y03329D02*
X0262D01*
Y03435*
X02569Y03329D02*
Y03435D01*
G54D11*
X02341Y03337D02*
D01*
X02341Y03337*
X02341Y03338*
X02341Y03338*
X0234Y03338*
X0234Y03339*
X0234Y03339*
X0234Y03339*
X0234Y0334*
X0234Y0334*
X0234Y0334*
X02339Y03341*
X02339Y03341*
X02339Y03341*
X02339Y03341*
X02338Y03341*
X02338Y03342*
X02338Y03342*
X02337Y03342*
X02337Y03342*
X02337Y03342*
X02336Y03342*
X02336Y03342*
X02336*
X02335Y03342*
X02335Y03342*
X02335Y03342*
X02334Y03342*
X02334Y03342*
X02334Y03342*
X02333Y03341*
X02333Y03341*
X02333Y03341*
X02332Y03341*
X02332Y03341*
X02332Y0334*
X02332Y0334*
X02332Y0334*
X02331Y03339*
X02331Y03339*
X02331Y03339*
X02331Y03338*
X02331Y03338*
X02331Y03338*
X02331Y03337*
X02331Y03337*
X02331Y03337*
X02331Y03336*
X02331Y03336*
X02331Y03336*
X02331Y03335*
X02331Y03335*
X02331Y03335*
X02332Y03335*
X02332Y03334*
X02332Y03334*
X02332Y03334*
X02332Y03333*
X02333Y03333*
X02333Y03333*
X02333Y03333*
X02334Y03333*
X02334Y03333*
X02334Y03332*
X02335Y03332*
X02335Y03332*
X02335Y03332*
X02336Y03332*
X02336*
X02336Y03332*
X02337Y03332*
X02337Y03332*
X02337Y03332*
X02338Y03333*
X02338Y03333*
X02338Y03333*
X02339Y03333*
X02339Y03333*
X02339Y03333*
X02339Y03334*
X0234Y03334*
X0234Y03334*
X0234Y03335*
X0234Y03335*
X0234Y03335*
X0234Y03335*
X0234Y03336*
X02341Y03336*
X02341Y03336*
X02341Y03337*
X02341Y03337*
G54D12*
X02Y03365D02*
X01995Y03369D01*
X01986*
X01982Y03365*
Y0336*
X01986Y03355*
X01995*
X02Y03351*
Y03346*
X01995Y03342*
X01986*
X01982Y03346*
X02009Y03369D02*
Y03342D01*
X02023*
X02028Y03346*
Y03365*
X02023Y03369*
X02009*
X02037Y03342D02*
Y0336D01*
X02046Y03369*
X02055Y0336*
Y03342*
Y03355*
X02037*
X0186Y03365D02*
X01855Y03369D01*
X01846*
X01842Y03365*
Y0336*
X01846Y03355*
X01855*
X0186Y03351*
Y03346*
X01855Y03342*
X01846*
X01842Y03346*
X01888Y03365D02*
X01883Y03369D01*
X01874*
X01869Y03365*
Y03346*
X01874Y03342*
X01883*
X01888Y03346*
X01897Y03369D02*
Y03342D01*
X01915*
X0197Y0345D02*
X01965Y03454D01*
X01956*
X01952Y0345*
Y03431*
X01956Y03427*
X01965*
X0197Y03431*
Y0344*
X01961*
X01979Y03427D02*
Y03454D01*
X01998Y03427*
Y03454*
X02007D02*
Y03427D01*
X0202*
X02025Y03431*
Y0345*
X0202Y03454*
X02007*
X01952Y03535D02*
X01956Y03539D01*
X01965*
X0197Y03535*
Y0353*
X01965Y03525*
X01961*
X01965*
X0197Y03521*
Y03516*
X01965Y03512*
X01956*
X01952Y03516*
X01979Y03539D02*
Y03521D01*
X01988Y03512*
X01998Y03521*
Y03539*
X02007Y03535D02*
X02011Y03539D01*
X0202*
X02025Y03535*
Y0353*
X0202Y03525*
X02016*
X0202*
X02025Y03521*
Y03516*
X0202Y03512*
X02011*
X02007Y03516*
X01952Y03644D02*
X01961D01*
X01956*
Y03617*
X01952*
X01961*
X01975D02*
Y03644D01*
X01993Y03617*
Y03644*
X02002D02*
X0202D01*
X02011*
Y03617*
X02043Y03451D02*
Y03478D01*
X02056*
X02061Y03474*
Y03465*
X02056Y0346*
X02043*
X02052D02*
X02061Y03451D01*
X0207D02*
X02079D01*
X02075*
Y03478*
X0207Y03474*
X02111Y03478D02*
X02093D01*
Y03465*
X02102Y03469*
X02107*
X02111Y03465*
Y03455*
X02107Y03451*
X02098*
X02093Y03455*
X0256Y03291D02*
Y03318D01*
X02574*
X02578Y03314*
Y03305*
X02574Y033*
X0256*
X02569D02*
X02578Y03291D01*
X02588D02*
X02597D01*
X02592*
Y03318*
X02588Y03314*
X02611D02*
X02615Y03318D01*
X02624*
X02629Y03314*
Y03309*
X02624Y03305*
X0262*
X02624*
X02629Y033*
Y03295*
X02624Y03291*
X02615*
X02611Y03295*
X02277Y03318D02*
Y03295D01*
X02281Y03291*
X0229*
X02295Y03295*
Y03318*
X02318Y03291D02*
Y03318D01*
X02304Y03305*
X02322*
X02145Y03191D02*
Y03218D01*
X02159*
X02163Y03214*
Y03205*
X02159Y032*
X02145*
X02154D02*
X02163Y03191D01*
X02173D02*
X02182D01*
X02177*
Y03218*
X02173Y03214*
X02196Y03218D02*
X02214D01*
Y03214*
X02196Y03195*
Y03191*
X0223D02*
Y03218D01*
X02244*
X02248Y03214*
Y03205*
X02244Y032*
X0223*
X02239D02*
X02248Y03191D01*
X02258D02*
X02267D01*
X02262*
Y03218*
X02258Y03214*
X02299Y03218D02*
X0229Y03214D01*
X02281Y03205*
Y03195*
X02285Y03191*
X02294*
X02299Y03195*
Y032*
X02294Y03205*
X02281*
X02583Y03589D02*
X02579Y03593D01*
X0257*
X02565Y03589*
Y0357*
X0257Y03566*
X02579*
X02583Y0357*
X02593Y03566D02*
X02602D01*
X02597*
Y03593*
X02593Y03589*
X02616Y03593D02*
X02634D01*
Y03589*
X02616Y0357*
Y03566*
X02388Y03589D02*
X02384Y03593D01*
X02375*
X0237Y03589*
Y0357*
X02375Y03566*
X02384*
X02388Y0357*
X02398Y03566D02*
X02407D01*
X02402*
Y03593*
X02398Y03589*
X02439Y03593D02*
X02421D01*
Y0358*
X0243Y03584*
X02434*
X02439Y0358*
Y0357*
X02434Y03566*
X02425*
X02421Y0357*
X02418Y03269D02*
X02414Y03273D01*
X02405*
X024Y03269*
Y0325*
X02405Y03246*
X02414*
X02418Y0325*
X02428Y03246D02*
X02437D01*
X02432*
Y03273*
X02428Y03269*
X02464Y03246D02*
Y03273D01*
X02451Y0326*
X02469*
X02293Y03579D02*
X02289Y03583D01*
X0228*
X02275Y03579*
Y0356*
X0228Y03556*
X02289*
X02293Y0356*
X02303Y03556D02*
X02312D01*
X02307*
Y03583*
X02303Y03579*
X02344Y03556D02*
X02326D01*
X02344Y03574*
Y03579*
X02339Y03583*
X0233*
X02326Y03579*
M02*