%FSTAX23Y23*%
%MOIN*%
%SFA1B1*%

%IPPOS*%
%AMD13*
4,1,8,0.078700,-0.060600,0.078700,0.060600,0.039400,0.100000,-0.039400,0.100000,-0.078700,0.060600,-0.078700,-0.060600,-0.039400,-0.100000,0.039400,-0.100000,0.078700,-0.060600,0.0*
1,1,0.078740,0.039400,-0.060600*
1,1,0.078740,0.039400,0.060600*
1,1,0.078740,-0.039400,0.060600*
1,1,0.078740,-0.039400,-0.060600*
%
%ADD10C,0.007870*%
G04~CAMADD=13~8~0.0~0.0~2000.0~1574.8~393.7~0.0~15~0.0~0.0~0.0~0.0~0~0.0~0.0~0.0~0.0~0~0.0~0.0~0.0~270.0~1574.0~2000.0*
%ADD13D13*%
%ADD14R,0.033470X0.033470*%
%ADD15R,0.038190X0.036220*%
%ADD16O,0.118110X0.059060*%
%ADD17O,0.011020X0.027560*%
%ADD18O,0.027560X0.011020*%
%ADD19R,0.105510X0.105510*%
%ADD20R,0.036220X0.038190*%
%ADD21R,0.033470X0.033470*%
%ADD31C,0.003940*%
%ADD32C,0.011810*%
%ADD33C,0.015750*%
%ADD34C,0.019680*%
%ADD35C,0.030000*%
%LNpcb2-1*%
%LPD*%
G36*
X01924Y03612D02*
X01924Y03611D01*
X01924Y03611*
X01924Y0361*
X01924Y03609*
X01924Y03608*
X01925Y03607*
X01926Y03606*
X01927Y03605*
X01928Y03604*
X01922Y03598*
X01921Y03599*
X0192Y036*
X01919Y03601*
X01918Y03602*
X01917Y03602*
X01916Y03602*
X01915Y03602*
X01915Y03602*
X01914Y03602*
X01913Y03602*
X01925Y03613*
X01924Y03612*
G37*
G36*
X02292Y03505D02*
X02291Y03506D01*
X02289Y03506*
X02287*
X02286Y03506*
X02283Y03505*
X02281Y03503*
X02279Y03502*
X02276Y03499*
X0227Y03494*
X02258Y03505*
X02261Y03508*
X02266Y03514*
X02268Y03516*
X0227Y03519*
X0227Y03521*
X02271Y03523*
Y03524*
X0227Y03526*
X0227Y03527*
X02292Y03505*
G37*
G36*
X01829Y03497D02*
X01828Y03498D01*
X01827Y03498*
X01826Y03498*
X01825Y03498*
X01824Y03498*
X01822Y03497*
X01821Y03496*
X01819Y03495*
X01817Y03493*
X01815Y03492*
X01807Y035*
X01809Y03502*
X01812Y03505*
X01813Y03507*
X01813Y03508*
X01814Y0351*
X01814Y03511*
X01814Y03512*
X01813Y03513*
X01813Y03514*
X01829Y03497*
G37*
G36*
X01928Y0352D02*
X01927Y03519D01*
X01927Y03518*
X01928Y03516*
X01928Y03515*
X01929Y03513*
X0193Y03512*
X01932Y0351*
X01933Y03508*
X01935Y03506*
X01929Y03496*
X01927Y03498*
X01925Y03499*
X01923Y035*
X01922Y03501*
X01921Y03502*
X01919Y03502*
X01918*
X01917Y03502*
X01916Y03501*
X01916Y035*
X01928Y03521*
X01928Y0352*
G37*
G36*
X02212Y03491D02*
X02212Y03489D01*
X02212Y03487*
X02213Y03485*
X02213Y03484*
X02214Y03483*
X02215Y03482*
X02216Y03481*
X02217Y03481*
X02218Y03481*
X02194*
X02195Y03481*
X02196Y03481*
X02197Y03482*
X02198Y03483*
X02198Y03484*
X02199Y03485*
X02199Y03487*
X022Y03489*
X022Y03491*
X022Y03493*
X02212*
X02212Y03491*
G37*
G36*
X02138Y03487D02*
X02142Y03483D01*
X02144Y03482*
X02146Y03481*
X02147Y0348*
X02149Y0348*
X0215Y0348*
X02151Y0348*
X02152Y03481*
X02135Y03464*
X02136Y03465*
X02136Y03466*
X02136Y03468*
X02136Y03469*
X02135Y03471*
X02134Y03472*
X02133Y03474*
X02131Y03476*
X02127Y03481*
X02135Y03489*
X02138Y03487*
G37*
G36*
X01924Y03449D02*
X01925Y03447D01*
X01926Y03446*
X01927Y03445*
X01929Y03444*
X01931Y03444*
X01933Y03443*
X01936Y03443*
X01939Y03442*
X01943Y03442*
Y03427*
X01939Y03427*
X01933Y03426*
X01931Y03425*
X01929Y03425*
X01927Y03424*
X01926Y03423*
X01925Y03422*
X01924Y0342*
X01924Y03419*
Y0345*
X01924Y03449*
G37*
G36*
X01931Y03318D02*
X0193Y03317D01*
X01929Y03316*
X01928Y03314*
X01928Y03313*
X01927Y03313*
X01927Y03312*
X01927Y03311*
X01927Y0331*
X01927Y0331*
X01928Y03309*
X01917Y0332*
X01917Y0332*
X01918Y03319*
X01919Y03319*
X01919Y03319*
X0192Y0332*
X01921Y0332*
X01922Y03321*
X01923Y03321*
X01924Y03322*
X01926Y03323*
X01931Y03318*
G37*
G36*
X02206Y03319D02*
X02206Y03319D01*
X02207Y03318*
X02207Y03317*
X02208Y03317*
X02209Y03317*
X0221Y03316*
X02211Y03316*
X02212Y03316*
X02214Y03316*
Y03308*
X02212Y03308*
X02211Y03308*
X0221Y03308*
X02209Y03307*
X02208Y03307*
X02207Y03307*
X02207Y03306*
X02206Y03306*
X02206Y03305*
X02206Y03304*
Y0332*
X02206Y03319*
G37*
G36*
X0219Y03308D02*
X02189Y03308D01*
X02189Y03308*
X02188Y03308*
X02188Y03307*
X02187Y03306*
X02184Y03304*
X02184Y03303*
X02183Y03303*
X02179Y03298*
X02179Y03298*
X02179Y03298*
X02179Y03297*
X02175Y03301*
X02175Y03301*
X02175Y03301*
X02176Y03302*
X02176Y03302*
X02178Y03303*
X0218Y03306*
X02181Y03306*
X02181Y03307*
X02185Y03311*
X02185Y03311*
X02186Y03312*
X02186Y03312*
X0219Y03308*
G37*
G36*
X02173Y03295D02*
X02173Y03295D01*
X02173Y03295*
X02172Y03294*
X02172Y03294*
X02171Y03294*
X0217Y03294*
X02169Y03294*
X02168Y03293*
X02165Y03293*
Y03301*
X02167Y03301*
X02168Y03301*
X02169Y03302*
X0217Y03302*
X02171Y03302*
X02172Y03303*
X02172Y03303*
X02173Y03304*
X02173Y03304*
X02173Y03305*
X02173Y03295*
G37*
G36*
X02017Y03293D02*
X02017Y03293D01*
X02016Y03293*
X02016Y03293*
X02016Y03293*
X02016Y03293*
X02016Y03293*
X02013Y03296*
X02013Y03296*
X02013Y03296*
X02013Y03296*
X02013Y03296*
X02013Y03296*
X02013Y03297*
X02013Y03297*
X02017Y03293*
G37*
G36*
X02072Y03304D02*
X02072Y03304D01*
X02072Y03303*
X02073Y03303*
X02074Y03302*
X02075Y03302*
X02076Y03302*
X02077Y03301*
X02079Y03301*
X02081Y03301*
X02081Y03293*
X0208Y03293*
X02078Y03293*
X02077Y03293*
X02076Y03293*
X02075Y03292*
X02074Y03292*
X02074Y03291*
X02073Y03291*
X02073Y0329*
X02073Y03289*
X02071Y03305*
X02072Y03304*
G37*
G36*
X02194Y03261D02*
X02194Y03261D01*
X02196Y03261*
X02206Y03261*
Y03253*
X02194Y03253*
Y03261*
X02194Y03261*
G37*
G36*
X02266Y03264D02*
X02266Y03263D01*
X02267Y03263*
X02267Y03262*
X02268Y03262*
X02269Y03262*
X0227Y03261*
X02271Y03261*
X02272Y03261*
X02274Y03261*
Y03253*
X02272Y03253*
X02271Y03253*
X0227Y03253*
X02269Y03252*
X02268Y03252*
X02267Y03252*
X02267Y03251*
X02266Y0325*
X02266Y0325*
X02266Y03249*
Y03265*
X02266Y03264*
G37*
G36*
X02233Y03249D02*
X02233Y0325D01*
X02233Y0325*
X02232Y03251*
X02232Y03252*
X02231Y03252*
X0223Y03252*
X02229Y03253*
X02228Y03253*
X02227Y03253*
X02225Y03253*
Y03261*
X02227Y03261*
X02228Y03261*
X02229Y03261*
X0223Y03262*
X02231Y03262*
X02232Y03262*
X02232Y03263*
X02233Y03263*
X02233Y03264*
X02233Y03265*
Y03249*
G37*
G36*
X02206Y03264D02*
X02206Y03263D01*
X02207Y03263*
X02207Y03262*
X02208Y03262*
X02209Y03262*
X0221Y03261*
X02211Y03261*
X02212Y03261*
X02214Y03261*
Y03253*
X02212Y03253*
X02211Y03253*
X0221Y03253*
X02209Y03252*
X02208Y03252*
X02207Y03252*
X02207Y03251*
X02206Y0325*
X02206Y0325*
X02206Y03249*
Y03265*
X02206Y03264*
G37*
G36*
X02173Y03245D02*
X02173Y03246D01*
X02173Y03247*
X02172Y03248*
X02171Y03249*
X0217Y0325*
X02169Y0325*
X02167Y03251*
X02165Y03251*
X02163Y03251*
X02161Y03251*
Y03263*
X02163Y03263*
X02165Y03263*
X02167Y03263*
X02169Y03264*
X0217Y03264*
X02171Y03265*
X02172Y03266*
X02173Y03267*
X02173Y03268*
X02173Y03269*
Y03245*
G37*
G36*
X02369Y03325D02*
X02369Y03324D01*
X02369Y03322*
X0237Y03321*
X0237Y0332*
X0237Y03319*
X02371Y03319*
X02371Y03318*
X02372Y03318*
X02372Y03317*
X02373Y03317*
X02358Y03317*
X02359Y03318*
X02359Y03318*
X0236Y03318*
X0236Y03319*
X02361Y03319*
X02361Y0332*
X02361Y03321*
X02361Y03323*
X02361Y03324*
X02361Y03325*
X02369*
G37*
G36*
X02414Y0328D02*
X02415Y03281D01*
X02418Y03284*
X02419Y03285*
X02419Y03286*
X0242Y03288*
X0242Y03288*
Y03289*
X0242Y0329*
X02419Y03291*
X0243Y0328*
X0243Y0328*
X02429Y0328*
X02428*
X02427Y0328*
X02426Y0328*
X02425Y03279*
X02424Y03278*
X02422Y03277*
X02419Y03274*
X02414Y0328*
G37*
G36*
X02467Y03293D02*
X02465Y03293D01*
X02463Y03292*
X02461Y03292*
X02459Y03292*
X02458Y03291*
X02457Y0329*
X02456Y0329*
X02456Y03289*
X02455Y03288*
X02455Y03287*
Y0331*
X02455Y03309*
X02456Y03308*
X02456Y03307*
X02457Y03307*
X02458Y03306*
X02459Y03305*
X02461Y03305*
X02463Y03305*
X02465Y03304*
X02467Y03304*
Y03293*
G37*
G36*
X02334Y03389D02*
X02334Y03389D01*
X02334Y03389*
X02334Y03388*
X02334Y03388*
X02334Y03388*
X02334Y03388*
X02334Y03388*
X02333Y03387*
X02333Y03387*
X02329Y03391*
X02329Y03391*
X0233Y03391*
X0233Y03391*
X0233Y03391*
X02331Y03391*
X02331Y03391*
X02331Y03391*
X02331Y03392*
X02331Y03392*
X02334Y03389*
G37*
G36*
X02315Y03465D02*
X02314Y03465D01*
X02312Y03465*
X02311Y03465*
X0231Y03464*
X02309Y03464*
X02309Y03464*
X02308Y03463*
X02308Y03463*
X02307Y03462*
X02307Y03461*
Y03477*
X02307Y03476*
X02308Y03475*
X02308Y03475*
X02309Y03474*
X02309Y03474*
X0231Y03474*
X02311Y03473*
X02312Y03473*
X02314Y03473*
X02315Y03473*
Y03465*
G37*
G36*
X02307Y0353D02*
X02308Y03529D01*
X02308Y03529*
X02309Y03528*
X02309Y03528*
X0231Y03527*
X02311Y03527*
X02312Y03527*
X02314Y03527*
X02315Y03527*
Y03519*
X02314Y03519*
X02312Y03519*
X02311Y03519*
X0231Y03518*
X02309Y03518*
X02309Y03517*
X02308Y03517*
X02308Y03516*
X02307Y03516*
X02307Y03515*
Y03519*
X02296Y03518*
X02295Y03518*
X02295Y03518*
X02294Y03517*
Y03528*
X02295Y03528*
X02295Y03528*
X02296Y03528*
X02298Y03527*
X02301Y03527*
X02307Y03527*
Y03531*
X02307Y0353*
G37*
G36*
X02352Y03527D02*
X02353Y03527D01*
X02355Y03527*
X02356Y03527*
X02357Y03527*
X02358Y03528*
X02359Y03528*
X0236Y03529*
X0236Y03529*
X02361Y0353*
X02361Y0353*
X0236Y03515*
X0236Y03516*
X0236Y03516*
X02359Y03517*
X02359Y03517*
X02358Y03518*
X02357Y03518*
X02356Y03519*
X02355Y03519*
X02354Y03519*
X02352Y03519*
X02352Y03527*
G37*
G36*
X02435Y03579D02*
X02437Y03579D01*
X02439Y03579*
X02441Y0358*
X02442Y0358*
X02444Y03581*
X02445Y03581*
X02446Y03582*
X02446Y03583*
X02447Y03584*
X02447Y03585*
Y03561*
X02447Y03563*
X02446Y03564*
X02446Y03564*
X02445Y03565*
X02444Y03566*
X02442Y03566*
X02441Y03567*
X02439Y03567*
X02437Y03567*
X02435Y03567*
Y03579*
G37*
G36*
X02458Y03549D02*
X02458Y03551D01*
X02458Y03553*
X02457Y03555*
X02457Y03556*
X02456Y03558*
X02456Y03559*
X02455Y03559*
X02454Y0356*
X02453Y0356*
X02452Y03561*
X02476*
X02474Y0356*
X02473Y0356*
X02473Y03559*
X02472Y03559*
X02471Y03558*
X02471Y03556*
X0247Y03555*
X0247Y03553*
X0247Y03551*
X0247Y03549*
X02458*
G37*
G36*
X02544Y03597D02*
X02544Y03595D01*
X02545Y03594*
X02547Y03593*
X02548Y03592*
X02551Y03591*
X02553Y0359*
X02556Y0359*
X02559Y03589*
X02563Y03589*
Y0357*
X02559Y0357*
X02556Y03569*
X02553Y03569*
X02551Y03568*
X02548Y03567*
X02547Y03566*
X02545Y03565*
X02544Y03564*
X02544Y03562*
X02544Y03561*
Y03598*
X02544Y03597*
G37*
G36*
X02605Y03571D02*
X02606Y03568D01*
X02606Y03565*
X02607Y03562*
X02608Y0356*
X02609Y03558*
X0261Y03557*
X02611Y03556*
X02613Y03555*
X02614Y03555*
X02577*
X02578Y03555*
X0258Y03556*
X02581Y03557*
X02582Y03558*
X02583Y0356*
X02584Y03562*
X02585Y03565*
X02585Y03568*
X02586Y03571*
X02586Y03575*
X02605*
X02605Y03571*
G37*
G36*
X02577Y03544D02*
X02582Y03544D01*
X02584Y03545*
X02585Y03545*
X02587Y03545*
X02588Y03546*
X02589Y03546*
Y03544*
X02589Y03544*
X02589Y03545*
X0259Y03545*
Y03534*
X02589Y03534*
X02589Y03535*
X02589Y03535*
Y03533*
X02588Y03533*
X02587Y03534*
X02585Y03534*
X02584Y03534*
X02582Y03535*
X02577Y03535*
Y03532*
X02577Y03532*
X02576Y03533*
X02576Y03534*
X02575Y03534*
X02575Y03535*
X02574Y03535*
X02573Y03535*
X02572Y03535*
X0257Y03536*
X0257Y03536*
X02567Y03536*
Y03543*
X0257Y03543*
X0257Y03543*
X02572Y03544*
X02573Y03544*
X02574Y03544*
X02575Y03544*
X02575Y03545*
X02576Y03545*
X02576Y03546*
X02577Y03547*
X02577Y03547*
Y03544*
G37*
G36*
X02614Y0354D02*
X02613Y03539D01*
Y03537*
X02614Y03535*
X02614Y03533*
X02616Y03531*
X02618Y03528*
X0262Y03525*
X02626Y03519*
X02614Y03508*
X02611Y03511*
X02605Y03516*
X02603Y03518*
X02601Y03519*
X02598Y0352*
X02597Y03521*
X02595*
X02593Y0352*
X02592Y03519*
X02614Y03542*
X02614Y0354*
G37*
G36*
X025Y03497D02*
X025Y03497D01*
X025Y03496*
X025Y03496*
X025Y03495*
X025Y03495*
X025Y03494*
X02501Y03494*
X02501Y03494*
X02501Y03494*
X02494*
X02494Y03494*
X02494Y03494*
X02495Y03494*
X02495Y03495*
X02495Y03495*
X02495Y03496*
X02495Y03496*
X02496Y03497*
X02496Y03497*
X02496Y03498*
X025*
X025Y03497*
G37*
G36*
X02603Y03458D02*
X02602Y03458D01*
X02601Y03458*
X02601Y03457*
X026Y03456*
X026Y03455*
X026Y03454*
X026Y03453*
X02599Y03452*
X02599Y0345*
X02592*
X02592Y03452*
X02591Y03453*
X02591Y03454*
X02591Y03455*
X02591Y03456*
X0259Y03457*
X0259Y03458*
X02589Y03458*
X02588Y03458*
X02588Y03458*
X02603*
X02603Y03458*
G37*
G36*
X02578Y03352D02*
X02578Y03352D01*
X02578Y03353*
X02577Y03354*
X02577Y03354*
X02576Y03355*
X02575Y03355*
X02574Y03355*
X02573Y03355*
X02572Y03356*
X0257Y03356*
Y03363*
X02572Y03363*
X02573Y03364*
X02574Y03364*
X02575Y03364*
X02576Y03364*
X02577Y03365*
X02577Y03365*
X02578Y03366*
X02578Y03367*
X02578Y03367*
Y03352*
G37*
G36*
X02605Y03338D02*
X02604Y03337D01*
X02603Y03337*
X02603Y03336*
X02602Y03335*
X02601Y03334*
X02601Y03332*
X02601Y0333*
X026Y03328*
X026Y03326*
X02589*
X02589Y03328*
X02588Y0333*
X02588Y03332*
X02588Y03334*
X02587Y03335*
X02586Y03336*
X02586Y03337*
X02585Y03337*
X02584Y03338*
X02583Y03338*
X02606*
X02605Y03338*
G37*
G54D10*
X0221Y03545D02*
X02275Y0361D01*
X02498*
X01996Y03545D02*
X0221D01*
X01949Y03592D02*
X01996Y03545D01*
X0187Y0362D02*
Y03627D01*
X02288Y03523D02*
X02365D01*
X0256Y0354D02*
X02596D01*
X02365Y03298D02*
Y03361D01*
X01899Y03627D02*
X01934Y03592D01*
X0187Y03627D02*
X01899D01*
X01934Y03592D02*
X01949D01*
X02397Y03257D02*
X02437Y03298D01*
X0225Y03257D02*
X02397D01*
X02329Y03344D02*
Y03387D01*
X02285Y033D02*
X02329Y03344D01*
X01873Y03295D02*
X01902D01*
X01948Y03341*
X02221*
X0225Y03312*
X02017Y03297D02*
X02175D01*
X02437Y03298D02*
Y03298D01*
X0225Y03257D02*
D01*
X0219D02*
X0225D01*
Y03312D02*
X02254Y03317D01*
X0227D02*
Y0332D01*
X02254Y03317D02*
X0227D01*
Y0332D02*
X0231Y0336D01*
X02322Y03409D02*
X02335D01*
X0231Y03397D02*
X02322Y03409D01*
X02335D02*
X02336Y0341D01*
X0231Y0336D02*
Y03397D01*
X0219Y03312D02*
X02221D01*
X02288Y03469D02*
X02336D01*
X02288Y03462D02*
Y03469D01*
X02365Y03518D02*
Y03523D01*
X0255Y0336D02*
X02595D01*
X02365Y03298D02*
X02376D01*
X02595Y03354D02*
Y0336D01*
X0255D02*
Y0341D01*
X02493D02*
X0255D01*
X0256Y03469D02*
Y0354D01*
X02493Y03469D02*
X0256D01*
X02596Y03449D02*
Y03476D01*
X02493Y03449D02*
X02596D01*
X02493Y0343D02*
X02595D01*
Y0341D02*
Y0343D01*
G54D13*
X01565Y03275D03*
Y03527D03*
G54D14*
X02152Y03465D03*
X02207D03*
G54D15*
X02596Y03537D03*
Y03476D03*
X02288Y03462D03*
Y03523D03*
G54D16*
X0187Y03627D03*
X02015Y03295D03*
X01873Y03295D03*
X0187Y03435D03*
Y03525D03*
G54D17*
X02365Y03361D03*
X02385D03*
X02405D03*
X02424D03*
X02444D03*
X02464D03*
Y03518D03*
X02444D03*
X02424D03*
X02405D03*
X02385D03*
X02365D03*
G54D18*
X02493Y0339D03*
Y0341D03*
Y0343D03*
Y03449D03*
Y03469D03*
Y03489D03*
X02336D03*
Y03469D03*
Y03449D03*
Y0343D03*
Y0341D03*
Y0339D03*
G54D19*
X02415Y0344D03*
G54D20*
X02437Y03298D03*
X02376D03*
X02526Y0358D03*
X02465D03*
G54D21*
X0225Y03257D03*
Y03312D03*
X0219Y03257D03*
Y03312D03*
X02595Y0341D03*
Y03354D03*
G54D31*
X02498Y0349D02*
Y03609D01*
X0218Y03427D02*
Y03496D01*
X02284Y033D02*
X02285D01*
X0227Y03285D02*
X02284Y033D01*
X02223Y03291D02*
X02229Y03285D01*
X0227*
X02223Y03291D02*
Y0331D01*
X02015Y03295D02*
X02017Y03297D01*
X02175D02*
X0219Y03312D01*
X02333Y0339D02*
X02336D01*
X02329Y03387D02*
X02333Y0339D01*
X02221Y03312D02*
X02223Y0331D01*
G54D32*
X02206Y03513D02*
X02266Y03573D01*
X02458*
X02464Y03579D02*
X02465Y0358D01*
X02464Y03573D02*
Y03579D01*
X02458Y03573D02*
X02464Y03579D01*
X02206Y03466D02*
Y03513D01*
X02464Y03518D02*
Y03573D01*
X02206Y03466D02*
X02207Y03465D01*
X01908Y03525D02*
X01937Y03496D01*
X0187Y03525D02*
X01908D01*
X01937Y03496D02*
X02121D01*
X02152Y03465*
X02595Y03298D02*
Y03354D01*
X02437Y03298D02*
X02595D01*
X02076Y03257D02*
X0219D01*
X01797Y0328D02*
X01825Y03251D01*
X0207*
X02076Y03257*
X01797Y03481D02*
X0184Y03525D01*
X01797Y0328D02*
Y03481D01*
X0184Y03525D02*
X01855D01*
G54D33*
X0187Y03435D02*
X02046D01*
X02053Y03427D02*
X0218D01*
X02046Y03435D02*
X02053Y03427D01*
X01991Y0352D02*
X02157D01*
X0194Y0357D02*
X01991Y0352D01*
X02254Y03438D02*
Y03489D01*
X02188Y0342D02*
X02235D01*
X02288Y03523D02*
X02288D01*
X02254Y03489D02*
X02288Y03523D01*
X02235Y0342D02*
X02254Y03438D01*
X0218Y03427D02*
X02188Y0342D01*
X02596Y03538D02*
X02635Y03499D01*
X02157Y0352D02*
X0218Y03496D01*
X01773Y03521D02*
X01821Y0357D01*
X0194*
X01773Y0327D02*
Y03521D01*
X02554Y03224D02*
X02635Y03305D01*
Y03499*
X01818Y03224D02*
X02554D01*
X01773Y0327D02*
X01818Y03224D01*
X02596Y03538D02*
Y0354D01*
G54D34*
X02596Y0354D02*
Y0358D01*
X02526D02*
X02596D01*
G54D35*
X0153Y03512D03*
Y03591D03*
Y03552D03*
Y03472D03*
Y0321D03*
Y0325D03*
Y0329D03*
Y0333D03*
M02*